<svg xmlns="http://www.w3.org/2000/svg" viewBox="0 0 1200 675" width="1200" height="675">
  <defs>
    <linearGradient id="bgGrad" x1="0%" y1="0%" x2="100%" y2="100%">
      <stop offset="0%" stop-color="#0b131d"/>
      <stop offset="50%" stop-color="#111c2a"/>
      <stop offset="100%" stop-color="#080e15"/>
    </linearGradient>
    <linearGradient id="chromeGrad" x1="0%" y1="0%" x2="0%" y2="100%">
      <stop offset="0%" stop-color="#1e293b"/>
      <stop offset="100%" stop-color="#0f172a"/>
    </linearGradient>
    <linearGradient id="heroCardGrad" x1="0%" y1="0%" x2="100%" y2="100%">
      <stop offset="0%" stop-color="#041b10"/>
      <stop offset="40%" stop-color="#0c2d1e"/>
      <stop offset="100%" stop-color="#0a1926"/>
    </linearGradient>
    <linearGradient id="npayGrad" x1="0%" y1="0%" x2="100%" y2="100%">
      <stop offset="0%" stop-color="#03c75a"/>
      <stop offset="100%" stop-color="#00a344"/>
    </linearGradient>
    <linearGradient id="cardGrad" x1="0%" y1="0%" x2="0%" y2="100%">
      <stop offset="0%" stop-color="#182334"/>
      <stop offset="100%" stop-color="#111b27"/>
    </linearGradient>
    <filter id="dropShadow" x="-10%" y="-10%" width="120%" height="130%">
      <feDropShadow dx="0" dy="16" stdDeviation="24" flood-color="#000000" flood-opacity="0.6"/>
    </filter>
    <filter id="cardShadow" x="-5%" y="-5%" width="110%" height="120%">
      <feDropShadow dx="0" dy="6" stdDeviation="8" flood-color="#000000" flood-opacity="0.35"/>
    </filter>
  </defs>

  <rect width="1200" height="675" fill="url(#bgGrad)"/>
  
  <g stroke="#ffffff" stroke-opacity="0.03" stroke-width="1">
    <line x1="0" y1="135" x2="1200" y2="135"/>
    <line x1="0" y1="270" x2="1200" y2="270"/>
    <line x1="0" y1="405" x2="1200" y2="405"/>
    <line x1="0" y1="540" x2="1200" y2="540"/>
    <line x1="240" y1="0" x2="240" y2="675"/>
    <line x1="480" y1="0" x2="480" y2="675"/>
    <line x1="720" y1="0" x2="720" y2="675"/>
    <line x1="960" y1="0" x2="960" y2="675"/>
  </g>

  <circle cx="600" cy="300" r="380" fill="#03c75a" opacity="0.07"/>

  <g transform="translate(60, 35)" filter="url(#dropShadow)">
    <rect width="1080" height="605" rx="14" fill="#0b131e" stroke="#2a3b50" stroke-width="1.5"/>

    <!-- 1. Browser Chrome -->
    <path d="M 0,14 Q 0,0 14,0 L 1066,0 Q 1080,0 1080,14 L 1080,46 L 0,46 Z" fill="url(#chromeGrad)"/>
    <line x1="0" y1="46" x2="1080" y2="46" stroke="#ffffff" stroke-opacity="0.1" stroke-width="1"/>

    <circle cx="26" cy="23" r="6" fill="#ff5f56"/>
    <circle cx="46" cy="23" r="6" fill="#ffbd2e"/>
    <circle cx="66" cy="23" r="6" fill="#27c93f"/>

    <path d="M 98,23 L 104,18 M 98,23 L 104,28" stroke="#94a3b8" stroke-width="1.8" stroke-linecap="round"/>
    <path d="M 116,23 L 110,18 M 116,23 L 110,28" stroke="#64748b" stroke-width="1.8" stroke-linecap="round"/>
    
    <path d="M 134,20 A 4,4 0 1,1 131,25" fill="none" stroke="#94a3b8" stroke-width="1.6" stroke-linecap="round"/>
    <path d="M 130,22 L 131,25 L 134,24" fill="none" stroke="#94a3b8" stroke-width="1.6" stroke-linecap="round" stroke-linejoin="round"/>

    <rect x="155" y="9" width="670" height="28" rx="14" fill="#0b131e" stroke="#334155" stroke-width="1"/>
    <g transform="translate(168, 16)">
      <rect x="0" y="3" width="10" height="8" rx="1.5" fill="#03c75a"/>
      <path d="M 2,3 L 2,1.5 A 3,3 0 0,1 8,1.5 L 8,3" fill="none" stroke="#03c75a" stroke-width="1.5"/>
    </g>
    <text x="186" y="27" font-family="-apple-system, BlinkMacSystemFont, 'Pretendard', sans-serif" font-size="11.5" font-weight="500" fill="#94a3b8">
      <tspan fill="#03c75a" font-weight="700">https://</tspan>smartstore.naver.com/<tspan fill="#ffffff" font-weight="700">bt24store</tspan>
    </text>

    <g transform="translate(710, 14)">
      <rect width="102" height="18" rx="9" fill="#03c75a" fill-opacity="0.15" stroke="#03c75a" stroke-width="0.8"/>
      <circle cx="10" cy="9" r="3.5" fill="#03c75a"/>
      <text x="19" y="12.5" font-family="-apple-system, BlinkMacSystemFont, 'Pretendard', sans-serif" font-size="9" font-weight="700" fill="#03c75a">네이버 공식인증몰</text>
    </g>

    <g transform="translate(840, 16)">
      <text x="15" y="12" font-family="-apple-system, BlinkMacSystemFont, 'Pretendard', sans-serif" font-size="11" font-weight="600" fill="#38bdf8">1440 x 900</text>
      <rect x="95" y="-2" width="128" height="22" rx="4" fill="#03c75a"/>
      <text x="159" y="13" font-family="-apple-system, BlinkMacSystemFont, 'Pretendard', sans-serif" font-size="10.5" font-weight="800" fill="#ffffff" text-anchor="middle">실시간 운영 스토어 ↗</text>
    </g>

    <!-- 2. Naver GNB -->
    <g transform="translate(0, 47)">
      <rect width="1080" height="38" fill="#131e2b"/>
      <line x1="0" y1="38" x2="1080" y2="38" stroke="#1e2e42" stroke-width="1"/>
      
      <g transform="translate(24, 10)">
        <rect width="18" height="18" rx="3.5" fill="#03c75a"/>
        <text x="9" y="14" font-family="Arial, sans-serif" font-size="12" font-weight="900" fill="#ffffff" text-anchor="middle">N</text>
      </g>
      <text x="50" y="23" font-family="-apple-system, BlinkMacSystemFont, 'Pretendard', sans-serif" font-size="12" font-weight="700" fill="#ffffff">스마트스토어</text>
      
      <g transform="translate(145, 6)">
        <rect width="320" height="26" rx="13" fill="#091017" stroke="#253549" stroke-width="1"/>
        <text x="16" y="17" font-family="-apple-system, BlinkMacSystemFont, 'Pretendard', sans-serif" font-size="10.5" fill="#64748b">BT24 스토어 내 상품 및 핫딜 검색</text>
        <circle cx="298" cy="13" r="5" fill="none" stroke="#03c75a" stroke-width="1.8"/>
        <line x1="302" y1="17" x2="307" y2="21" stroke="#03c75a" stroke-width="1.8" stroke-linecap="round"/>
      </g>

      <g transform="translate(760, 11)">
        <text x="0" y="13" font-family="-apple-system, BlinkMacSystemFont, 'Pretendard', sans-serif" font-size="11" font-weight="600" fill="#94a3b8">스토어찜 12,840</text>
        <text x="95" y="13" font-family="-apple-system, BlinkMacSystemFont, 'Pretendard', sans-serif" font-size="11" font-weight="600" fill="#94a3b8">소식알림</text>
        <text x="155" y="13" font-family="-apple-system, BlinkMacSystemFont, 'Pretendard', sans-serif" font-size="11" font-weight="700" fill="#03c75a">NPay 35,400P</text>
        <rect x="250" y="-3" width="56" height="22" rx="11" fill="#03c75a" fill-opacity="0.15" stroke="#03c75a" stroke-width="1"/>
        <text x="278" y="12" font-family="-apple-system, BlinkMacSystemFont, 'Pretendard', sans-serif" font-size="10.5" font-weight="700" fill="#03c75a" text-anchor="middle">장바구니 3</text>
      </g>
    </g>

    <!-- 3. Store Brand Header -->
    <g transform="translate(0, 86)">
      <rect width="1080" height="56" fill="#0e1724"/>
      <line x1="0" y1="56" x2="1080" y2="56" stroke="#1d2c3e" stroke-width="1"/>

      <g transform="translate(28, 12)">
        <rect width="36" height="32" rx="7" fill="url(#npayGrad)"/>
        <text x="18" y="22" font-family="-apple-system, BlinkMacSystemFont, 'Pretendard', sans-serif" font-size="13" font-weight="900" fill="#ffffff" text-anchor="middle">BT</text>
        <text x="74" y="24" font-family="-apple-system, BlinkMacSystemFont, 'Pretendard', sans-serif" font-size="18" font-weight="900" fill="#ffffff" letter-spacing="-0.5">BT24 <tspan fill="#03c75a">STORE</tspan></text>
        <text x="74" y="38" font-family="-apple-system, BlinkMacSystemFont, 'Pretendard', sans-serif" font-size="9.5" font-weight="500" fill="#64748b">SMART TECH GEAR &amp; LIFESTYLE SELECT</text>
      </g>

      <g transform="translate(390, 20)">
        <text x="0" y="14" font-family="-apple-system, BlinkMacSystemFont, 'Pretendard', sans-serif" font-size="12" font-weight="800" fill="#03c75a">전체상품</text>
        <rect x="-2" y="22" width="48" height="2.5" rx="1.2" fill="#03c75a"/>
        <text x="65" y="14" font-family="-apple-system, BlinkMacSystemFont, 'Pretendard', sans-serif" font-size="12" font-weight="600" fill="#cbd5e1">🎮 게이밍 기어 8K</text>
        <text x="185" y="14" font-family="-apple-system, BlinkMacSystemFont, 'Pretendard', sans-serif" font-size="12" font-weight="600" fill="#cbd5e1">🍸 스마트 바·홈</text>
        <text x="290" y="14" font-family="-apple-system, BlinkMacSystemFont, 'Pretendard', sans-serif" font-size="12" font-weight="600" fill="#cbd5e1">📱 모바일 테크</text>
        <text x="390" y="14" font-family="-apple-system, BlinkMacSystemFont, 'Pretendard', sans-serif" font-size="12" font-weight="700" fill="#f59e0b">🔥 핫딜·특가</text>
        <text x="475" y="14" font-family="-apple-system, BlinkMacSystemFont, 'Pretendard', sans-serif" font-size="12" font-weight="600" fill="#cbd5e1">고객리뷰</text>
      </g>

      <g transform="translate(945, 14)">
        <rect width="105" height="28" rx="14" fill="#03c75a" fill-opacity="0.12" stroke="#03c75a" stroke-width="1.2"/>
        <circle cx="16" cy="14" r="5" fill="#03c75a"/>
        <text x="28" y="18" font-family="-apple-system, BlinkMacSystemFont, 'Pretendard', sans-serif" font-size="11" font-weight="800" fill="#03c75a">1:1 톡톡문의</text>
      </g>
    </g>

    <!-- 4. Hero Banner Section -->
    <g transform="translate(24, 154)">
      <rect width="1032" height="175" rx="12" fill="url(#heroCardGrad)" stroke="#1a4030" stroke-width="1.2"/>
      
      <g transform="translate(32, 28)">
        <rect width="170" height="22" rx="11" fill="#03c75a" fill-opacity="0.25" stroke="#03c75a" stroke-width="0.8"/>
        <text x="14" y="15" font-family="-apple-system, BlinkMacSystemFont, 'Pretendard', sans-serif" font-size="10.5" font-weight="800" fill="#03c75a">★ BT24 스토어 단독 런칭 기획전</text>

        <text x="0" y="52" font-family="-apple-system, BlinkMacSystemFont, 'Pretendard', sans-serif" font-size="23" font-weight="900" fill="#ffffff" letter-spacing="-0.5">
          GAMESIR G7 Pro 8K 무선 게이밍 패드 &amp; 천왕성 특가
        </text>
        
        <text x="0" y="78" font-family="-apple-system, BlinkMacSystemFont, 'Pretendard', sans-serif" font-size="12.5" font-weight="500" fill="#a7f3d0">
          초정밀 8,000Hz 폴링레이트 &amp; 홀 이펙트 센서 탑재 | 네이버페이 최대 5% 추가 적립
        </text>

        <g transform="translate(0, 94)">
          <rect width="90" height="24" rx="4" fill="#0f261d" stroke="#03c75a" stroke-width="0.8"/>
          <text x="45" y="16" font-family="-apple-system, BlinkMacSystemFont, 'Pretendard', sans-serif" font-size="10" font-weight="700" fill="#03c75a" text-anchor="middle">오늘출발 (15시)</text>

          <rect x="98" y="0" width="85" height="24" rx="4" fill="#0f261d" stroke="#03c75a" stroke-width="0.8"/>
          <text x="140.5" y="16" font-family="-apple-system, BlinkMacSystemFont, 'Pretendard', sans-serif" font-size="10" font-weight="700" fill="#38bdf8" text-anchor="middle">KC 안전인증</text>

          <rect x="191" y="0" width="95" height="24" rx="4" fill="#0f261d" stroke="#03c75a" stroke-width="0.8"/>
          <text x="238.5" y="16" font-family="-apple-system, BlinkMacSystemFont, 'Pretendard', sans-serif" font-size="10" font-weight="700" fill="#fbbf24" text-anchor="middle">무료배송 혜택</text>

          <g transform="translate(305, -2)">
            <rect width="145" height="28" rx="6" fill="#03c75a"/>
            <text x="72.5" y="18" font-family="-apple-system, BlinkMacSystemFont, 'Pretendard', sans-serif" font-size="11.5" font-weight="900" fill="#ffffff" text-anchor="middle">단독 59,800원 구매 ↗</text>
          </g>
        </g>
      </g>

      <!-- Right Visual Mockup (Gamepad) -->
      <g transform="translate(680, 20)">
        <circle cx="160" cy="70" r="100" fill="#03c75a" opacity="0.25"/>
        <rect x="50" y="20" width="220" height="110" rx="40" fill="#132337" stroke="#38bdf8" stroke-width="2"/>
        <path d="M 60,60 C 40,110 50,135 80,140 C 105,145 115,120 110,80 Z" fill="#0f1c2d"/>
        <path d="M 260,60 C 280,110 270,135 240,140 C 215,145 205,120 210,80 Z" fill="#0f1c2d"/>
        <path d="M 100,55 L 108,55 L 108,47 L 114,47 L 114,55 L 122,55 L 122,61 L 114,61 L 114,69 L 108,69 L 108,61 L 100,61 Z" fill="#38bdf8"/>
        <circle cx="140" cy="80" r="16" fill="#1e293b" stroke="#03c75a" stroke-width="2"/>
        <circle cx="140" cy="80" r="8" fill="#03c75a"/>
        <circle cx="185" cy="80" r="16" fill="#1e293b" stroke="#03c75a" stroke-width="2"/>
        <circle cx="185" cy="80" r="8" fill="#03c75a"/>
        <circle cx="210" cy="50" r="6" fill="#ef4444"/>
        <circle cx="222" cy="58" r="6" fill="#3b82f6"/>
        <circle cx="198" cy="58" r="6" fill="#eab308"/>
        <circle cx="210" cy="66" r="6" fill="#10b981"/>

        <g transform="translate(190, 95)" filter="url(#cardShadow)">
          <rect width="110" height="26" rx="13" fill="#04121d" stroke="#03c75a" stroke-width="1.2"/>
          <text x="55" y="17" font-family="-apple-system, BlinkMacSystemFont, 'Pretendard', sans-serif" font-size="10.5" font-weight="900" fill="#03c75a" text-anchor="middle">⚡ 8K Polling Rate</text>
        </g>
      </g>
    </g>

    <!-- 5. Product Grid Showcase -->
    <g transform="translate(28, 345)">
      <text x="0" y="16" font-family="-apple-system, BlinkMacSystemFont, 'Pretendard', sans-serif" font-size="15" font-weight="900" fill="#ffffff">
        🔥 BT24 스토어 실시간 베스트셀러 &amp; 인기 큐레이션
      </text>
      <text x="360" y="15" font-family="-apple-system, BlinkMacSystemFont, 'Pretendard', sans-serif" font-size="11" font-weight="600" fill="#03c75a">
        [전체 32개 상품 등록 완료 • 네이버페이 1초 간편결제 연동]
      </text>
    </g>

    <!-- 4 Product Cards Grid -->
    <g transform="translate(24, 372)" filter="url(#cardShadow)">
      <rect width="246" height="210" rx="10" fill="url(#cardGrad)" stroke="#22364c" stroke-width="1"/>
      <rect x="8" y="8" width="230" height="96" rx="7" fill="#0a131e"/>
      <rect x="14" y="14" width="56" height="18" rx="4" fill="#ef4444"/>
      <text x="42" y="27" font-family="-apple-system, BlinkMacSystemFont, 'Pretendard', sans-serif" font-size="9" font-weight="900" fill="#ffffff" text-anchor="middle">BEST 1위</text>
      <rect x="74" y="14" width="54" height="18" rx="4" fill="#03c75a"/>
      <text x="101" y="27" font-family="-apple-system, BlinkMacSystemFont, 'Pretendard', sans-serif" font-size="9" font-weight="800" fill="#ffffff" text-anchor="middle">NPay 5%</text>
      
      <path d="M 85,60 C 85,45 155,45 155,60 C 155,75 140,82 120,82 C 100,82 85,75 85,60 Z" fill="#1e293b" stroke="#38bdf8" stroke-width="1.5"/>
      <circle cx="105" cy="62" r="5" fill="#03c75a"/>
      <circle cx="135" cy="62" r="5" fill="#38bdf8"/>

      <text x="12" y="122" font-family="-apple-system, BlinkMacSystemFont, 'Pretendard', sans-serif" font-size="11" font-weight="800" fill="#ffffff">
        GAMESIR G7 Pro 8K 무선 게이밍패드
      </text>
      <text x="12" y="137" font-family="-apple-system, BlinkMacSystemFont, 'Pretendard', sans-serif" font-size="9.5" font-weight="500" fill="#94a3b8">
        천왕성 기계식 스위치 / PC·콘솔 완벽호환
      </text>

      <text x="12" y="160" font-family="-apple-system, BlinkMacSystemFont, 'Pretendard', sans-serif" font-size="12" font-weight="900" fill="#ef4444">32%</text>
      <text x="44" y="160" font-family="-apple-system, BlinkMacSystemFont, 'Pretendard', sans-serif" font-size="14.5" font-weight="900" fill="#ffffff">59,800원</text>
      <text x="135" y="159" font-family="-apple-system, BlinkMacSystemFont, 'Pretendard', sans-serif" font-size="9.5" font-weight="500" fill="#64748b" text-decoration="line-through">89,000원</text>

      <line x1="12" y1="172" x2="234" y2="172" stroke="#1f2d3d" stroke-width="1"/>
      <text x="12" y="191" font-family="-apple-system, BlinkMacSystemFont, 'Pretendard', sans-serif" font-size="9.5" font-weight="700" fill="#f59e0b">★ 4.9</text>
      <text x="42" y="191" font-family="-apple-system, BlinkMacSystemFont, 'Pretendard', sans-serif" font-size="9" font-weight="500" fill="#94a3b8">리뷰 1,280개</text>
      <text x="180" y="191" font-family="-apple-system, BlinkMacSystemFont, 'Pretendard', sans-serif" font-size="9" font-weight="700" fill="#03c75a">무료배송</text>
    </g>

    <!-- Card 2 -->
    <g transform="translate(286, 372)" filter="url(#cardShadow)">
      <rect width="246" height="210" rx="10" fill="url(#cardGrad)" stroke="#22364c" stroke-width="1"/>
      <rect x="8" y="8" width="230" height="96" rx="7" fill="#0a131e"/>
      <rect x="14" y="14" width="56" height="18" rx="4" fill="#3b82f6"/>
      <text x="42" y="27" font-family="-apple-system, BlinkMacSystemFont, 'Pretendard', sans-serif" font-size="9" font-weight="900" fill="#ffffff" text-anchor="middle">BEST 2위</text>
      <rect x="74" y="14" width="62" height="18" rx="4" fill="#0f291e" stroke="#03c75a" stroke-width="0.8"/>
      <text x="105" y="27" font-family="-apple-system, BlinkMacSystemFont, 'Pretendard', sans-serif" font-size="9" font-weight="800" fill="#03c75a" text-anchor="middle">체험단 1위</text>

      <rect x="110" y="32" width="26" height="42" rx="4" fill="#1e293b" stroke="#38bdf8" stroke-width="1.5"/>
      <path d="M 120,32 L 120,24 L 126,24 L 126,32" stroke="#38bdf8" stroke-width="1.5"/>
      <circle cx="123" cy="52" r="5" fill="#03c75a"/>

      <text x="12" y="122" font-family="-apple-system, BlinkMacSystemFont, 'Pretendard', sans-serif" font-size="11" font-weight="800" fill="#ffffff">
        바매니저 디지털 스마트 푸어러 디스펜서
      </text>
      <text x="12" y="137" font-family="-apple-system, BlinkMacSystemFont, 'Pretendard', sans-serif" font-size="9.5" font-weight="500" fill="#94a3b8">
        홈텐딩 &amp; 칵테일 정밀 자동 정량 토출기
      </text>

      <text x="12" y="160" font-family="-apple-system, BlinkMacSystemFont, 'Pretendard', sans-serif" font-size="12" font-weight="900" fill="#ef4444">27%</text>
      <text x="44" y="160" font-family="-apple-system, BlinkMacSystemFont, 'Pretendard', sans-serif" font-size="14.5" font-weight="900" fill="#ffffff">49,900원</text>
      <text x="135" y="159" font-family="-apple-system, BlinkMacSystemFont, 'Pretendard', sans-serif" font-size="9.5" font-weight="500" fill="#64748b" text-decoration="line-through">68,000원</text>

      <line x1="12" y1="172" x2="234" y2="172" stroke="#1f2d3d" stroke-width="1"/>
      <text x="12" y="191" font-family="-apple-system, BlinkMacSystemFont, 'Pretendard', sans-serif" font-size="9.5" font-weight="700" fill="#f59e0b">★ 4.8</text>
      <text x="42" y="191" font-family="-apple-system, BlinkMacSystemFont, 'Pretendard', sans-serif" font-size="9" font-weight="500" fill="#94a3b8">리뷰 842개</text>
      <text x="175" y="191" font-family="-apple-system, BlinkMacSystemFont, 'Pretendard', sans-serif" font-size="9" font-weight="700" fill="#38bdf8">톡톡 3천P</text>
    </g>

    <!-- Card 3 -->
    <g transform="translate(548, 372)" filter="url(#cardShadow)">
      <rect width="246" height="210" rx="10" fill="url(#cardGrad)" stroke="#22364c" stroke-width="1"/>
      <rect x="8" y="8" width="230" height="96" rx="7" fill="#0a131e"/>
      <rect x="14" y="14" width="56" height="18" rx="4" fill="#8b5cf6"/>
      <text x="42" y="27" font-family="-apple-system, BlinkMacSystemFont, 'Pretendard', sans-serif" font-size="9" font-weight="900" fill="#ffffff" text-anchor="middle">테크추천</text>

      <circle cx="123" cy="56" r="22" fill="none" stroke="#8b5cf6" stroke-width="2.5" stroke-dasharray="8 3"/>
      <circle cx="123" cy="56" r="10" fill="#03c75a"/>

      <text x="12" y="122" font-family="-apple-system, BlinkMacSystemFont, 'Pretendard', sans-serif" font-size="11" font-weight="800" fill="#ffffff">
        3in1 마그네틱 맥세이프 쿨링 충전독
      </text>
      <text x="12" y="137" font-family="-apple-system, BlinkMacSystemFont, 'Pretendard', sans-serif" font-size="9.5" font-weight="500" fill="#94a3b8">
        아이폰·애플워치·에어팟 동시 15W 고속충전
      </text>

      <text x="12" y="160" font-family="-apple-system, BlinkMacSystemFont, 'Pretendard', sans-serif" font-size="12" font-weight="900" fill="#ef4444">31%</text>
      <text x="44" y="160" font-family="-apple-system, BlinkMacSystemFont, 'Pretendard', sans-serif" font-size="14.5" font-weight="900" fill="#ffffff">32,800원</text>
      <text x="135" y="159" font-family="-apple-system, BlinkMacSystemFont, 'Pretendard', sans-serif" font-size="9.5" font-weight="500" fill="#64748b" text-decoration="line-through">48,000원</text>

      <line x1="12" y1="172" x2="234" y2="172" stroke="#1f2d3d" stroke-width="1"/>
      <text x="12" y="191" font-family="-apple-system, BlinkMacSystemFont, 'Pretendard', sans-serif" font-size="9.5" font-weight="700" fill="#f59e0b">★ 4.9</text>
      <text x="42" y="191" font-family="-apple-system, BlinkMacSystemFont, 'Pretendard', sans-serif" font-size="9" font-weight="500" fill="#94a3b8">리뷰 610개</text>
      <text x="180" y="191" font-family="-apple-system, BlinkMacSystemFont, 'Pretendard', sans-serif" font-size="9" font-weight="700" fill="#03c75a">무료배송</text>
    </g>

    <!-- Card 4 -->
    <g transform="translate(810, 372)" filter="url(#cardShadow)">
      <rect width="246" height="210" rx="10" fill="url(#cardGrad)" stroke="#22364c" stroke-width="1"/>
      <rect x="8" y="8" width="230" height="96" rx="7" fill="#0a131e"/>
      <rect x="14" y="14" width="56" height="18" rx="4" fill="#f59e0b"/>
      <text x="42" y="27" font-family="-apple-system, BlinkMacSystemFont, 'Pretendard', sans-serif" font-size="9" font-weight="900" fill="#ffffff" text-anchor="middle">음향 1위</text>

      <rect x="105" y="32" width="36" height="48" rx="4" fill="#1e293b" stroke="#f59e0b" stroke-width="1.5"/>
      <circle cx="123" cy="56" r="12" fill="#0a131e" stroke="#f59e0b" stroke-width="1.5"/>
      <circle cx="123" cy="56" r="5" fill="#f59e0b"/>

      <text x="12" y="122" font-family="-apple-system, BlinkMacSystemFont, 'Pretendard', sans-serif" font-size="11" font-weight="800" fill="#ffffff">
        Hi-Fi 프리미엄 데스크탑 블루투스 스피커
      </text>
      <text x="12" y="137" font-family="-apple-system, BlinkMacSystemFont, 'Pretendard', sans-serif" font-size="9.5" font-weight="500" fill="#94a3b8">
        스튜디오 모니터링급 저음 앰프 &amp; 고해상도
      </text>

      <text x="12" y="160" font-family="-apple-system, BlinkMacSystemFont, 'Pretendard', sans-serif" font-size="12" font-weight="900" fill="#ef4444">31%</text>
      <text x="44" y="160" font-family="-apple-system, BlinkMacSystemFont, 'Pretendard', sans-serif" font-size="14.5" font-weight="900" fill="#ffffff">89,000원</text>
      <text x="135" y="159" font-family="-apple-system, BlinkMacSystemFont, 'Pretendard', sans-serif" font-size="9.5" font-weight="500" fill="#64748b" text-decoration="line-through">129,000원</text>

      <line x1="12" y1="172" x2="234" y2="172" stroke="#1f2d3d" stroke-width="1"/>
      <text x="12" y="191" font-family="-apple-system, BlinkMacSystemFont, 'Pretendard', sans-serif" font-size="9.5" font-weight="700" fill="#f59e0b">★ 5.0</text>
      <text x="42" y="191" font-family="-apple-system, BlinkMacSystemFont, 'Pretendard', sans-serif" font-size="9" font-weight="500" fill="#94a3b8">리뷰 450개</text>
      <text x="180" y="191" font-family="-apple-system, BlinkMacSystemFont, 'Pretendard', sans-serif" font-size="9" font-weight="700" fill="#03c75a">무료배송</text>
    </g>
  </g>
</svg>